<svg version="1.1" id="Layer_1" xmlns="http://www.w3.org/2000/svg" x="0" y="0" viewBox="0 0 515 513" xml:space="preserve"><style>.st1{fill:#ffc802}.st4{fill:#073042}</style><ellipse cx="257" cy="259.719" rx="250" ry="249.719" opacity=".2"/><ellipse class="st1" cx="257" cy="255.719" rx="250" ry="249.719"/><path class="st1" d="M504.874 288.362L305.124 88.845l-161.35 263.467 150.527 150.356c109.743-16.4 196.16-104.043 210.573-214.306z"/><linearGradient id="SVGID_1_" gradientUnits="userSpaceOnUse" x1="256.745" y1="252.758" x2="450.413" y2="446.426"><stop offset=".001" stop-color="#e5af03"/><stop offset="1" stop-color="#ffc802"/></linearGradient><path d="M504.874 288.362L305.124 88.845l-161.35 263.467 150.527 150.356c109.743-16.4 196.16-104.043 210.573-214.306z" fill="url(#SVGID_1_)"/><path d="M351.043 185.504h-9.755c-2.267-26.985-17.7-49.825-40.261-62.096l-4.901-2.446c-10.177-4.645-21.606-7.232-33.803-7.232-12.196 0-23.625 2.587-33.802 7.232l-.042-.073c-1.68.75-3.378 1.45-5.1 2.1l.241.419a77.495 77.495 0 00-16.014 11.58h-45.618c-13.892 0-25.258 11.367-25.258 25.258 0 .34.012.678.024 1.016-.05-.696-.05-1.094-.05-1.094v174.555c0 13.891 11.366 25.257 25.258 25.257h44.26l-10.87 23.162c-3.815 8.189 2.164 17.57 11.199 17.57 4.804 0 9.173-2.786 11.2-7.142l15.72-33.59h56.993l15.943 33.135a12.343 12.343 0 0011.117 6.978c9.096 0 15.067-9.504 11.12-17.7l-10.756-22.413h35.439l-.06 39.07c0 .692.565 1.258 1.257 1.258l10.692.06c12.5 0 22.727-10.227 22.727-22.726V209.848c0-27.52-36.9-24.344-36.9-24.344z" fill="#cc9805"/><g><path class="st4" d="M222.909 126.925h-68.966c-13.892 0-25.258 11.365-25.258 25.257 0 13.891 10.528 25.257 24.42 25.257H223.5l-.591-50.514z"/><path d="M379.898 351.916H153.917c-13.892 0-25.257-11.366-25.257-25.257V152.104s-.076 25.336 26.915 25.336h187.424s36.899-3.176 36.899 24.344v150.132z" fill="#4285f4"/><path d="M244.715 262.83l-41.851 89.178h27.248l19.4-41.456c3.559-7.559 14.3-7.59 17.903-.053l19.972 41.509h27.423l-43.054-89.719c5.4-4.17 8.899-10.687 8.899-18.021 0-10.626-7.318-19.555-17.176-22.056l.002-.352v-14.45a4.379 4.379 0 00-8.755 0v14.32c-11.073 1.542-19.633 11.047-19.633 22.538 0 7.658 3.81 14.43 9.622 18.562zm13.158-32.59c7.747 0 14.028 6.281 14.028 14.028s-6.28 14.027-14.028 14.027c-7.747 0-14.026-6.28-14.026-14.027s6.28-14.027 14.026-14.027z" fill="#3870b2"/><path fill="#fff" d="M207.958 139.33h96.688v17.704h-96.688z"/><path d="M290.623 154.958c-3.626 0-6.576-2.952-6.576-6.578s2.95-6.577 6.576-6.577c3.626 0 6.576 2.95 6.576 6.577s-2.95 6.578-6.576 6.578m-72.69 0c-3.626 0-6.575-2.952-6.575-6.578s2.95-6.577 6.576-6.577c3.626 0 6.576 2.95 6.576 6.577s-2.95 6.578-6.576 6.578m75.048-39.615l13.143-22.763a2.737 2.737 0 00-1-3.735 2.738 2.738 0 00-3.736 1l-13.308 23.052c-10.177-4.644-21.607-7.231-33.803-7.231-12.196 0-23.625 2.587-33.802 7.231l-13.308-23.051a2.735 2.735 0 00-4.736 2.734l13.143 22.763c-22.569 12.275-38.005 35.124-40.263 62.118h157.933c-2.26-26.994-17.696-49.843-40.263-62.118" fill="#3ddc84"/><path class="st4" d="M357.17 225.923h-10.437c-.692 0-1.258.566-1.258 1.258l-.254 163.805c0 .692.566 1.258 1.258 1.258l10.692.06c12.5 0 22.727-10.227 22.727-22.727V203.172c0 12.5-10.227 22.751-22.727 22.751zM253.048 230.444c7.747 0 14.028 6.28 14.028 14.028s-6.281 14.026-14.028 14.026c-7.747 0-14.027-6.28-14.027-14.026s6.28-14.028 14.027-14.028zm5.608-8.38v-14.45a4.378 4.378 0 00-8.755 0v14.32c-11.073 1.541-19.633 11.047-19.633 22.538 0 7.658 3.81 14.43 9.622 18.562l-52.583 112.043c-3.815 8.19 2.164 17.57 11.199 17.57 4.804 0 9.173-2.785 11.2-7.141l34.981-74.75c3.559-7.56 14.3-7.591 17.903-.054l35.772 74.348a12.343 12.343 0 0011.117 6.98c9.096 0 15.067-9.506 11.12-17.7L266.93 262.493c5.4-4.17 8.899-10.687 8.899-18.021 0-10.626-7.318-19.556-17.177-22.056"/></g></svg>
